<svg xmlns="http://www.w3.org/2000/svg" width="390" height="844" viewBox="0 0 390 844">
  <defs>
    <linearGradient id="bg" x1="0%" y1="0%" x2="100%" y2="100%">
      <stop offset="0%" stop-color="#0d1b2a"/>
      <stop offset="100%" stop-color="#1b263b"/>
    </linearGradient>
  </defs>
  <rect width="390" height="844" fill="url(#bg)"/>
  <rect x="20" y="60" width="350" height="50" rx="12" fill="#415a77" opacity="0.5"/>
  <text x="40" y="92" font-family="sans-serif" font-size="16" fill="#ffffff" opacity="0.7">Jok in the Box</text>
  <rect x="20" y="130" width="350" height="80" rx="12" fill="#1b263b" opacity="0.8"/>
  <rect x="40" y="150" width="200" height="10" rx="4" fill="#ffffff" opacity="0.2"/>
  <rect x="40" y="172" width="280" height="8" rx="4" fill="#ffffff" opacity="0.1"/>
  <rect x="20" y="230" width="350" height="80" rx="12" fill="#1b263b" opacity="0.8"/>
  <rect x="40" y="250" width="180" height="10" rx="4" fill="#ffffff" opacity="0.2"/>
  <rect x="40" y="272" width="260" height="8" rx="4" fill="#ffffff" opacity="0.1"/>
  <rect x="20" y="330" width="350" height="80" rx="12" fill="#1b263b" opacity="0.8"/>
  <rect x="20" y="430" width="350" height="80" rx="12" fill="#1b263b" opacity="0.8"/>
  <rect x="20" y="530" width="350" height="80" rx="12" fill="#1b263b" opacity="0.8"/>
  <rect x="60" y="760" width="270" height="44" rx="22" fill="#e94560" opacity="0.8"/>
  <text x="145" y="788" font-family="sans-serif" font-size="14" fill="#ffffff" opacity="0.9">Send Message</text>
</svg>
